<?xml version="1.0" encoding="utf-8"?>
<!-- Generator: Adobe Illustrator 15.0.0, SVG Export Plug-In . SVG Version: 6.00 Build 0)  -->
<!DOCTYPE svg PUBLIC "-//W3C//DTD SVG 1.1//EN" "http://www.w3.org/Graphics/SVG/1.1/DTD/svg11.dtd">
<svg version="1.1"
	 id="svg2" sodipodi:docname="L3.svg" inkscape:export-xdpi="90" inkscape:version="0.47 r22583" inkscape:export-ydpi="90" xmlns:dc="http://purl.org/dc/elements/1.1/" xmlns:cc="http://creativecommons.org/ns#" xmlns:rdf="http://www.w3.org/1999/02/22-rdf-syntax-ns#" xmlns:svg="http://www.w3.org/2000/svg" xmlns:sodipodi="http://sodipodi.sourceforge.net/DTD/sodipodi-0.dtd" xmlns:inkscape="http://www.inkscape.org/namespaces/inkscape" inkscape:export-filename="3.png"
	 xmlns="http://www.w3.org/2000/svg" xmlns:xlink="http://www.w3.org/1999/xlink" x="0px" y="0px" width="800px" height="600px"
	 viewBox="0 0 800 600" enable-background="new 0 0 800 600" xml:space="preserve">
<g id="layer1" transform="translate(0,-452.36218)" inkscape:label="Layer 1" inkscape:groupmode="layer">
	<path id="rect2816" d="M350,577.362c-25.104,0-45.783,18.324-49.438,42.375c-23.865,3.812-41.969,24.372-41.969,49.344v54.563
		c0,24.775,17.819,45.206,41.406,49.25v104.469c0,27.7,22.3,50,50,50h100c27.699,0,50-22.3,50-50V772.893
		c23.586-4.044,41.406-24.475,41.406-49.25v-54.563c0-24.972-18.104-45.532-41.969-49.344
		c-3.655-24.051-24.335-42.375-49.438-42.375H350z"/>
</g>
</svg>
