<?xml version="1.0" encoding="UTF-8" standalone="no"?>
<!-- Created with Inkscape (http://www.inkscape.org/) -->

<svg
   xmlns:dc="http://purl.org/dc/elements/1.1/"
   xmlns:cc="http://creativecommons.org/ns#"
   xmlns:rdf="http://www.w3.org/1999/02/22-rdf-syntax-ns#"
   xmlns:svg="http://www.w3.org/2000/svg"
   xmlns="http://www.w3.org/2000/svg"
   xmlns:sodipodi="http://sodipodi.sourceforge.net/DTD/sodipodi-0.dtd"
   xmlns:inkscape="http://www.inkscape.org/namespaces/inkscape"
   width="800"
   height="600"
   id="svg5126"
   version="1.1"
   inkscape:version="0.47 r22583"
   sodipodi:docname="L4.svg"
   inkscape:export-filename="4.png"
   inkscape:export-xdpi="90"
   inkscape:export-ydpi="90">
  <defs
     id="defs5128">
    <inkscape:perspective
       sodipodi:type="inkscape:persp3d"
       inkscape:vp_x="0 : 526.18109 : 1"
       inkscape:vp_y="0 : 1000 : 0"
       inkscape:vp_z="744.09448 : 526.18109 : 1"
       inkscape:persp3d-origin="372.04724 : 350.78739 : 1"
       id="perspective5134" />
    <inkscape:perspective
       id="perspective5204"
       inkscape:persp3d-origin="0.5 : 0.33333333 : 1"
       inkscape:vp_z="1 : 0.5 : 1"
       inkscape:vp_y="0 : 1000 : 0"
       inkscape:vp_x="0 : 0.5 : 1"
       sodipodi:type="inkscape:persp3d" />
    <inkscape:perspective
       id="perspective5741"
       inkscape:persp3d-origin="0.5 : 0.33333333 : 1"
       inkscape:vp_z="1 : 0.5 : 1"
       inkscape:vp_y="0 : 1000 : 0"
       inkscape:vp_x="0 : 0.5 : 1"
       sodipodi:type="inkscape:persp3d" />
    <inkscape:perspective
       id="perspective5767"
       inkscape:persp3d-origin="0.5 : 0.33333333 : 1"
       inkscape:vp_z="1 : 0.5 : 1"
       inkscape:vp_y="0 : 1000 : 0"
       inkscape:vp_x="0 : 0.5 : 1"
       sodipodi:type="inkscape:persp3d" />
    <inkscape:perspective
       id="perspective5791"
       inkscape:persp3d-origin="0.5 : 0.33333333 : 1"
       inkscape:vp_z="1 : 0.5 : 1"
       inkscape:vp_y="0 : 1000 : 0"
       inkscape:vp_x="0 : 0.5 : 1"
       sodipodi:type="inkscape:persp3d" />
    <inkscape:perspective
       id="perspective5826"
       inkscape:persp3d-origin="0.5 : 0.33333333 : 1"
       inkscape:vp_z="1 : 0.5 : 1"
       inkscape:vp_y="0 : 1000 : 0"
       inkscape:vp_x="0 : 0.5 : 1"
       sodipodi:type="inkscape:persp3d" />
    <inkscape:perspective
       id="perspective5826-2"
       inkscape:persp3d-origin="0.5 : 0.33333333 : 1"
       inkscape:vp_z="1 : 0.5 : 1"
       inkscape:vp_y="0 : 1000 : 0"
       inkscape:vp_x="0 : 0.5 : 1"
       sodipodi:type="inkscape:persp3d" />
    <inkscape:perspective
       id="perspective5826-0"
       inkscape:persp3d-origin="0.5 : 0.33333333 : 1"
       inkscape:vp_z="1 : 0.5 : 1"
       inkscape:vp_y="0 : 1000 : 0"
       inkscape:vp_x="0 : 0.5 : 1"
       sodipodi:type="inkscape:persp3d" />
  </defs>
  <sodipodi:namedview
     id="base"
     pagecolor="#ffffff"
     bordercolor="#666666"
     borderopacity="1.0"
     inkscape:pageopacity="0.0"
     inkscape:pageshadow="2"
     inkscape:zoom="0.91688179"
     inkscape:cx="247.61636"
     inkscape:cy="209.84077"
     inkscape:document-units="px"
     inkscape:current-layer="layer1"
     showgrid="false"
     inkscape:window-width="1920"
     inkscape:window-height="1025"
     inkscape:window-x="1362"
     inkscape:window-y="-3"
     inkscape:window-maximized="1" />
  <metadata
     id="metadata5131">
    <rdf:RDF>
      <cc:Work
         rdf:about="">
        <dc:format>image/svg+xml</dc:format>
        <dc:type
           rdf:resource="http://purl.org/dc/dcmitype/StillImage" />
        <dc:title></dc:title>
      </cc:Work>
    </rdf:RDF>
  </metadata>
  <g
     inkscape:label="Layer 1"
     inkscape:groupmode="layer"
     id="layer1"
     transform="translate(0,-452.36218)">
    <path
       style="color:#000000;fill:#009f00;fill-opacity:0.52657004;fill-rule:nonzero;stroke:#000000;stroke-width:0.72710216;stroke-linecap:butt;stroke-linejoin:miter;stroke-miterlimit:4;stroke-opacity:1;stroke-dasharray:none;stroke-dashoffset:0;marker:none;visibility:visible;display:inline;overflow:visible;enable-background:accumulate"
       d="M 395.53125 70.75 C 384.72088 70.76359 376.01766 79.502129 376.03125 90.3125 L 376.125 172.59375 C 366.95195 174.30218 358.10258 176.96934 349.71875 180.5 L 230.1875 97.28125 C 221.31517 91.104993 209.20751 93.283924 203.03125 102.15625 L 197.5 110.09375 C 191.32374 118.96608 193.50267 131.07374 202.375 137.25 L 306.78125 209.9375 C 285.57603 231.87983 272.02496 261.29295 270.5 293.84375 L 186.625 293.84375 C 174.23477 293.84375 164.28125 303.79727 164.28125 316.1875 C 164.28125 328.57773 174.23477 338.5625 186.625 338.5625 L 276.1875 338.5625 C 286.74921 372.5235 310.9323 400.46907 342.3125 416.09375 L 286.78125 530.78125 C 282.07093 540.51147 286.11353 552.13343 295.84375 556.84375 L 304.5625 561.0625 C 314.29272 565.77282 325.91468 561.73022 330.625 552 L 390.03125 429.25 C 393.32312 429.50043 396.64393 429.625 400 429.625 C 403.56942 429.625 407.09729 429.47045 410.59375 429.1875 L 465.0625 554.78125 C 469.36355 564.69918 480.80082 569.23855 490.71875 564.9375 L 499.59375 561.0625 C 509.51168 556.76145 514.0198 545.32418 509.71875 535.40625 L 457.9375 415.96875 C 488.5024 400.66743 512.17911 373.63892 523.0625 340.78125 L 615.875 341.09375 C 626.68532 341.13042 635.40083 332.43532 635.4375 321.625 L 635.5 311.96875 C 635.53667 301.15843 626.84157 292.41167 616.03125 292.375 L 529.375 292.09375 C 527.79443 265.86571 518.41901 241.73166 503.53125 222 L 595.96875 116.03125 C 603.07599 107.88561 602.23939 95.607242 594.09375 88.5 L 586.8125 82.15625 C 578.66686 75.049008 566.38849 75.885612 559.28125 84.03125 L 467.4375 189.25 C 454.55161 181.38653 440.17506 175.72594 424.84375 172.75 L 424.75 90.25 C 424.73641 79.439629 415.99787 70.73641 405.1875 70.75 L 395.53125 70.75 z M 396.90625 274.03125 C 424.28691 274.03125 446.46875 296.24434 446.46875 323.625 C 446.46875 351.00566 424.28691 373.1875 396.90625 373.1875 C 369.52559 373.1875 347.3125 351.00566 347.3125 323.625 C 347.3125 296.24434 369.52559 274.03125 396.90625 274.03125 z "
       transform="translate(0,452.36218)"
       id="path5210" />
    <path
       sodipodi:type="arc"
       style="color:#000000;fill:#009f00;fill-opacity:0.52657004;fill-rule:nonzero;stroke:#000000;stroke-width:1;stroke-linecap:butt;stroke-linejoin:miter;stroke-miterlimit:4;stroke-opacity:1;stroke-dasharray:none;stroke-dashoffset:0;marker:none;visibility:visible;display:inline;overflow:visible;enable-background:accumulate"
       id="path5724"
       sodipodi:cx="409.51157"
       sodipodi:cy="318.509"
       sodipodi:rx="40.102829"
       sodipodi:ry="40.102829"
       d="m 449.6144,318.509 a 40.102829,40.102829 0 1 1 -80.20566,0 40.102829,40.102829 0 1 1 80.20566,0 z"
       transform="matrix(0.92358097,0,0,0.92358097,18.680083,481.80516)" />
  </g>
</svg>
